<mxfile host="app.diagrams.net" modified="2023-08-01T04:33:59.708Z" agent="Mozilla/5.0 (Macintosh; Intel Mac OS X 10_15_7) AppleWebKit/537.36 (KHTML, like Gecko) Chrome/115.0.0.0 Safari/537.36" etag="vVareEkak2O3l9QCPeQ0" version="21.6.6" type="github">
  <diagram name="Page-1" id="5TNiRGgBlb-OC2oe8q7_">
    <mxGraphModel dx="2346" dy="980" grid="1" gridSize="10" guides="1" tooltips="1" connect="1" arrows="1" fold="1" page="1" pageScale="1" pageWidth="850" pageHeight="1100" math="0" shadow="0">
      <root>
        <mxCell id="0" />
        <mxCell id="1" parent="0" />
        <mxCell id="bkJ1D_NAtOHvWKbAgeD5-25" value="" style="edgeStyle=orthogonalEdgeStyle;rounded=0;orthogonalLoop=1;jettySize=auto;html=1;" parent="1" source="bkJ1D_NAtOHvWKbAgeD5-1" target="bkJ1D_NAtOHvWKbAgeD5-21" edge="1">
          <mxGeometry relative="1" as="geometry" />
        </mxCell>
        <mxCell id="bkJ1D_NAtOHvWKbAgeD5-1" value="CG0" style="rounded=0;whiteSpace=wrap;html=1;fillColor=#eeeeee;strokeColor=#36393d;" parent="1" vertex="1">
          <mxGeometry x="240" y="80" width="80" height="80" as="geometry" />
        </mxCell>
        <mxCell id="bkJ1D_NAtOHvWKbAgeD5-28" value="" style="edgeStyle=orthogonalEdgeStyle;rounded=0;orthogonalLoop=1;jettySize=auto;html=1;" parent="1" source="bkJ1D_NAtOHvWKbAgeD5-2" target="bkJ1D_NAtOHvWKbAgeD5-22" edge="1">
          <mxGeometry relative="1" as="geometry" />
        </mxCell>
        <mxCell id="bkJ1D_NAtOHvWKbAgeD5-2" value="CG3" style="rounded=0;whiteSpace=wrap;html=1;fillColor=#cce5ff;strokeColor=#36393d;" parent="1" vertex="1">
          <mxGeometry x="240" y="560" width="80" height="80" as="geometry" />
        </mxCell>
        <mxCell id="bkJ1D_NAtOHvWKbAgeD5-26" value="" style="edgeStyle=orthogonalEdgeStyle;rounded=0;orthogonalLoop=1;jettySize=auto;html=1;" parent="1" source="bkJ1D_NAtOHvWKbAgeD5-3" target="bkJ1D_NAtOHvWKbAgeD5-23" edge="1">
          <mxGeometry relative="1" as="geometry" />
        </mxCell>
        <mxCell id="bkJ1D_NAtOHvWKbAgeD5-3" value="CG1" style="rounded=0;whiteSpace=wrap;html=1;fillColor=#ffcccc;strokeColor=#36393d;" parent="1" vertex="1">
          <mxGeometry x="240" y="240" width="80" height="80" as="geometry" />
        </mxCell>
        <mxCell id="bkJ1D_NAtOHvWKbAgeD5-27" value="" style="edgeStyle=orthogonalEdgeStyle;rounded=0;orthogonalLoop=1;jettySize=auto;html=1;" parent="1" source="bkJ1D_NAtOHvWKbAgeD5-4" target="bkJ1D_NAtOHvWKbAgeD5-24" edge="1">
          <mxGeometry relative="1" as="geometry" />
        </mxCell>
        <mxCell id="bkJ1D_NAtOHvWKbAgeD5-4" value="CG2" style="rounded=0;whiteSpace=wrap;html=1;fillColor=#ffff88;strokeColor=#36393d;" parent="1" vertex="1">
          <mxGeometry x="240" y="400" width="80" height="80" as="geometry" />
        </mxCell>
        <mxCell id="rwI_FPXTkHDygoeM8ZNj-5" value="" style="edgeStyle=orthogonalEdgeStyle;rounded=0;orthogonalLoop=1;jettySize=auto;html=1;" parent="1" source="bkJ1D_NAtOHvWKbAgeD5-21" target="rwI_FPXTkHDygoeM8ZNj-1" edge="1">
          <mxGeometry relative="1" as="geometry" />
        </mxCell>
        <mxCell id="bkJ1D_NAtOHvWKbAgeD5-21" value="CG0" style="rounded=0;whiteSpace=wrap;html=1;fillColor=#eeeeee;strokeColor=#36393d;" parent="1" vertex="1">
          <mxGeometry x="400" y="80" width="80" height="80" as="geometry" />
        </mxCell>
        <mxCell id="rwI_FPXTkHDygoeM8ZNj-8" value="" style="edgeStyle=orthogonalEdgeStyle;rounded=0;orthogonalLoop=1;jettySize=auto;html=1;" parent="1" source="bkJ1D_NAtOHvWKbAgeD5-22" target="rwI_FPXTkHDygoeM8ZNj-2" edge="1">
          <mxGeometry relative="1" as="geometry" />
        </mxCell>
        <mxCell id="bkJ1D_NAtOHvWKbAgeD5-22" value="CG3" style="rounded=0;whiteSpace=wrap;html=1;fillColor=#cce5ff;strokeColor=#36393d;" parent="1" vertex="1">
          <mxGeometry x="400" y="560" width="80" height="80" as="geometry" />
        </mxCell>
        <mxCell id="rwI_FPXTkHDygoeM8ZNj-6" value="" style="edgeStyle=orthogonalEdgeStyle;rounded=0;orthogonalLoop=1;jettySize=auto;html=1;" parent="1" source="bkJ1D_NAtOHvWKbAgeD5-23" target="rwI_FPXTkHDygoeM8ZNj-3" edge="1">
          <mxGeometry relative="1" as="geometry" />
        </mxCell>
        <mxCell id="bkJ1D_NAtOHvWKbAgeD5-23" value="CG1" style="rounded=0;whiteSpace=wrap;html=1;fillColor=#ffcccc;strokeColor=#36393d;" parent="1" vertex="1">
          <mxGeometry x="400" y="240" width="80" height="80" as="geometry" />
        </mxCell>
        <mxCell id="rwI_FPXTkHDygoeM8ZNj-7" value="" style="edgeStyle=orthogonalEdgeStyle;rounded=0;orthogonalLoop=1;jettySize=auto;html=1;" parent="1" source="bkJ1D_NAtOHvWKbAgeD5-24" target="rwI_FPXTkHDygoeM8ZNj-4" edge="1">
          <mxGeometry relative="1" as="geometry" />
        </mxCell>
        <mxCell id="bkJ1D_NAtOHvWKbAgeD5-24" value="CG2" style="rounded=0;whiteSpace=wrap;html=1;fillColor=#ffff88;strokeColor=#36393d;" parent="1" vertex="1">
          <mxGeometry x="400" y="400" width="80" height="80" as="geometry" />
        </mxCell>
        <mxCell id="S5TMCLqPkmrL3Fpd-VaT-2" value="" style="edgeStyle=orthogonalEdgeStyle;rounded=0;orthogonalLoop=1;jettySize=auto;html=1;" edge="1" parent="1" source="rwI_FPXTkHDygoeM8ZNj-1" target="S5TMCLqPkmrL3Fpd-VaT-1">
          <mxGeometry relative="1" as="geometry" />
        </mxCell>
        <mxCell id="rwI_FPXTkHDygoeM8ZNj-1" value="CG0" style="rounded=0;whiteSpace=wrap;html=1;fillColor=#eeeeee;strokeColor=#36393d;" parent="1" vertex="1">
          <mxGeometry x="560" y="80" width="80" height="80" as="geometry" />
        </mxCell>
        <mxCell id="S5TMCLqPkmrL3Fpd-VaT-8" value="" style="edgeStyle=orthogonalEdgeStyle;rounded=0;orthogonalLoop=1;jettySize=auto;html=1;" edge="1" parent="1" source="rwI_FPXTkHDygoeM8ZNj-2" target="S5TMCLqPkmrL3Fpd-VaT-7">
          <mxGeometry relative="1" as="geometry" />
        </mxCell>
        <mxCell id="rwI_FPXTkHDygoeM8ZNj-2" value="CG3" style="rounded=0;whiteSpace=wrap;html=1;fillColor=#cce5ff;strokeColor=#36393d;" parent="1" vertex="1">
          <mxGeometry x="560" y="560" width="80" height="80" as="geometry" />
        </mxCell>
        <mxCell id="S5TMCLqPkmrL3Fpd-VaT-4" value="" style="edgeStyle=orthogonalEdgeStyle;rounded=0;orthogonalLoop=1;jettySize=auto;html=1;" edge="1" parent="1" source="rwI_FPXTkHDygoeM8ZNj-3" target="S5TMCLqPkmrL3Fpd-VaT-3">
          <mxGeometry relative="1" as="geometry" />
        </mxCell>
        <mxCell id="rwI_FPXTkHDygoeM8ZNj-3" value="CG1" style="rounded=0;whiteSpace=wrap;html=1;fillColor=#ffcccc;strokeColor=#36393d;" parent="1" vertex="1">
          <mxGeometry x="560" y="240" width="80" height="80" as="geometry" />
        </mxCell>
        <mxCell id="S5TMCLqPkmrL3Fpd-VaT-6" value="" style="edgeStyle=orthogonalEdgeStyle;rounded=0;orthogonalLoop=1;jettySize=auto;html=1;" edge="1" parent="1" source="rwI_FPXTkHDygoeM8ZNj-4" target="S5TMCLqPkmrL3Fpd-VaT-5">
          <mxGeometry relative="1" as="geometry" />
        </mxCell>
        <mxCell id="rwI_FPXTkHDygoeM8ZNj-4" value="CG2" style="rounded=0;whiteSpace=wrap;html=1;fillColor=#ffff88;strokeColor=#36393d;" parent="1" vertex="1">
          <mxGeometry x="560" y="400" width="80" height="80" as="geometry" />
        </mxCell>
        <mxCell id="rwI_FPXTkHDygoeM8ZNj-9" value="Stream 0" style="text;html=1;strokeColor=none;fillColor=none;align=center;verticalAlign=middle;whiteSpace=wrap;rounded=0;" parent="1" vertex="1">
          <mxGeometry x="30" y="105" width="60" height="30" as="geometry" />
        </mxCell>
        <mxCell id="rwI_FPXTkHDygoeM8ZNj-10" value="Stream 1" style="text;html=1;strokeColor=none;fillColor=none;align=center;verticalAlign=middle;whiteSpace=wrap;rounded=0;" parent="1" vertex="1">
          <mxGeometry x="30" y="265" width="60" height="30" as="geometry" />
        </mxCell>
        <mxCell id="rwI_FPXTkHDygoeM8ZNj-11" value="Stream 2" style="text;html=1;strokeColor=none;fillColor=none;align=center;verticalAlign=middle;whiteSpace=wrap;rounded=0;" parent="1" vertex="1">
          <mxGeometry x="30" y="425" width="60" height="30" as="geometry" />
        </mxCell>
        <mxCell id="rwI_FPXTkHDygoeM8ZNj-12" value="Stream 3" style="text;html=1;strokeColor=none;fillColor=none;align=center;verticalAlign=middle;whiteSpace=wrap;rounded=0;" parent="1" vertex="1">
          <mxGeometry x="30" y="585" width="60" height="30" as="geometry" />
        </mxCell>
        <mxCell id="rwI_FPXTkHDygoeM8ZNj-13" value="AI Card 0" style="text;html=1;strokeColor=none;fillColor=none;align=center;verticalAlign=middle;whiteSpace=wrap;rounded=0;" parent="1" vertex="1">
          <mxGeometry x="250" y="20" width="60" height="30" as="geometry" />
        </mxCell>
        <mxCell id="rwI_FPXTkHDygoeM8ZNj-14" value="AI Card 1" style="text;html=1;strokeColor=none;fillColor=none;align=center;verticalAlign=middle;whiteSpace=wrap;rounded=0;" parent="1" vertex="1">
          <mxGeometry x="410" y="20" width="60" height="30" as="geometry" />
        </mxCell>
        <mxCell id="rwI_FPXTkHDygoeM8ZNj-15" value="AI Card 2" style="text;html=1;strokeColor=none;fillColor=none;align=center;verticalAlign=middle;whiteSpace=wrap;rounded=0;" parent="1" vertex="1">
          <mxGeometry x="570" y="20" width="60" height="30" as="geometry" />
        </mxCell>
        <mxCell id="rwI_FPXTkHDygoeM8ZNj-16" value="" style="endArrow=classic;html=1;rounded=0;entryX=0;entryY=0.5;entryDx=0;entryDy=0;exitX=1;exitY=0.5;exitDx=0;exitDy=0;" parent="1" source="S5TMCLqPkmrL3Fpd-VaT-1" target="bkJ1D_NAtOHvWKbAgeD5-1" edge="1">
          <mxGeometry width="50" height="50" relative="1" as="geometry">
            <mxPoint x="810" y="110" as="sourcePoint" />
            <mxPoint x="200" y="200" as="targetPoint" />
            <Array as="points">
              <mxPoint x="840" y="120" />
              <mxPoint x="840" y="200" />
              <mxPoint x="160" y="200" />
              <mxPoint x="160" y="120" />
            </Array>
          </mxGeometry>
        </mxCell>
        <mxCell id="rwI_FPXTkHDygoeM8ZNj-17" value="" style="endArrow=classic;html=1;rounded=0;entryX=0;entryY=0.5;entryDx=0;entryDy=0;exitX=1;exitY=0.5;exitDx=0;exitDy=0;" parent="1" edge="1" source="S5TMCLqPkmrL3Fpd-VaT-3">
          <mxGeometry width="50" height="50" relative="1" as="geometry">
            <mxPoint x="800" y="280" as="sourcePoint" />
            <mxPoint x="240" y="280" as="targetPoint" />
            <Array as="points">
              <mxPoint x="840" y="280" />
              <mxPoint x="840" y="360" />
              <mxPoint x="160" y="360" />
              <mxPoint x="160" y="280" />
            </Array>
          </mxGeometry>
        </mxCell>
        <mxCell id="rwI_FPXTkHDygoeM8ZNj-18" value="" style="endArrow=classic;html=1;rounded=0;entryX=0;entryY=0.5;entryDx=0;entryDy=0;exitX=1;exitY=0.5;exitDx=0;exitDy=0;" parent="1" edge="1" source="S5TMCLqPkmrL3Fpd-VaT-5">
          <mxGeometry width="50" height="50" relative="1" as="geometry">
            <mxPoint x="800" y="440" as="sourcePoint" />
            <mxPoint x="240" y="440" as="targetPoint" />
            <Array as="points">
              <mxPoint x="840" y="440" />
              <mxPoint x="840" y="520" />
              <mxPoint x="160" y="520" />
              <mxPoint x="160" y="440" />
            </Array>
          </mxGeometry>
        </mxCell>
        <mxCell id="rwI_FPXTkHDygoeM8ZNj-19" value="" style="endArrow=classic;html=1;rounded=0;entryX=0;entryY=0.5;entryDx=0;entryDy=0;exitX=1;exitY=0.5;exitDx=0;exitDy=0;" parent="1" edge="1" source="S5TMCLqPkmrL3Fpd-VaT-7">
          <mxGeometry width="50" height="50" relative="1" as="geometry">
            <mxPoint x="800" y="600" as="sourcePoint" />
            <mxPoint x="240" y="600" as="targetPoint" />
            <Array as="points">
              <mxPoint x="840" y="600" />
              <mxPoint x="840" y="680" />
              <mxPoint x="160" y="680" />
              <mxPoint x="160" y="600" />
            </Array>
          </mxGeometry>
        </mxCell>
        <mxCell id="rwI_FPXTkHDygoeM8ZNj-21" value="" style="rounded=0;whiteSpace=wrap;html=1;" parent="1" vertex="1">
          <mxGeometry x="-160" y="200" width="80" height="320" as="geometry" />
        </mxCell>
        <mxCell id="rwI_FPXTkHDygoeM8ZNj-22" value="CG0" style="rounded=0;whiteSpace=wrap;html=1;fillColor=#eeeeee;strokeColor=#36393d;" parent="1" vertex="1">
          <mxGeometry x="-160" y="200" width="80" height="80" as="geometry" />
        </mxCell>
        <mxCell id="rwI_FPXTkHDygoeM8ZNj-24" value="CG1" style="rounded=0;whiteSpace=wrap;html=1;fillColor=#ffcccc;strokeColor=#36393d;" parent="1" vertex="1">
          <mxGeometry x="-160" y="280" width="80" height="80" as="geometry" />
        </mxCell>
        <mxCell id="rwI_FPXTkHDygoeM8ZNj-25" value="CG2" style="rounded=0;whiteSpace=wrap;html=1;fillColor=#ffff88;strokeColor=#36393d;" parent="1" vertex="1">
          <mxGeometry x="-160" y="360" width="80" height="80" as="geometry" />
        </mxCell>
        <mxCell id="rwI_FPXTkHDygoeM8ZNj-26" value="CG3" style="rounded=0;whiteSpace=wrap;html=1;fillColor=#cce5ff;strokeColor=#36393d;" parent="1" vertex="1">
          <mxGeometry x="-160" y="440" width="80" height="80" as="geometry" />
        </mxCell>
        <mxCell id="rwI_FPXTkHDygoeM8ZNj-27" value="" style="endArrow=classic;html=1;rounded=0;entryX=0;entryY=0.5;entryDx=0;entryDy=0;exitX=1;exitY=0.5;exitDx=0;exitDy=0;" parent="1" source="rwI_FPXTkHDygoeM8ZNj-22" target="rwI_FPXTkHDygoeM8ZNj-9" edge="1">
          <mxGeometry width="50" height="50" relative="1" as="geometry">
            <mxPoint x="60" y="400" as="sourcePoint" />
            <mxPoint x="110" y="350" as="targetPoint" />
          </mxGeometry>
        </mxCell>
        <mxCell id="rwI_FPXTkHDygoeM8ZNj-28" value="" style="endArrow=classic;html=1;rounded=0;entryX=0;entryY=0.5;entryDx=0;entryDy=0;exitX=1;exitY=0.5;exitDx=0;exitDy=0;" parent="1" source="rwI_FPXTkHDygoeM8ZNj-24" target="rwI_FPXTkHDygoeM8ZNj-10" edge="1">
          <mxGeometry width="50" height="50" relative="1" as="geometry">
            <mxPoint x="-70" y="290" as="sourcePoint" />
            <mxPoint x="40" y="130" as="targetPoint" />
          </mxGeometry>
        </mxCell>
        <mxCell id="rwI_FPXTkHDygoeM8ZNj-29" value="" style="endArrow=classic;html=1;rounded=0;entryX=0;entryY=0.5;entryDx=0;entryDy=0;exitX=1;exitY=0.5;exitDx=0;exitDy=0;" parent="1" source="rwI_FPXTkHDygoeM8ZNj-25" target="rwI_FPXTkHDygoeM8ZNj-11" edge="1">
          <mxGeometry width="50" height="50" relative="1" as="geometry">
            <mxPoint x="-70" y="370" as="sourcePoint" />
            <mxPoint x="40" y="290" as="targetPoint" />
          </mxGeometry>
        </mxCell>
        <mxCell id="rwI_FPXTkHDygoeM8ZNj-30" value="" style="endArrow=classic;html=1;rounded=0;entryX=0;entryY=0.5;entryDx=0;entryDy=0;exitX=1;exitY=0.5;exitDx=0;exitDy=0;" parent="1" source="rwI_FPXTkHDygoeM8ZNj-26" target="rwI_FPXTkHDygoeM8ZNj-12" edge="1">
          <mxGeometry width="50" height="50" relative="1" as="geometry">
            <mxPoint x="-70" y="450" as="sourcePoint" />
            <mxPoint x="40" y="450" as="targetPoint" />
          </mxGeometry>
        </mxCell>
        <mxCell id="S5TMCLqPkmrL3Fpd-VaT-1" value="CG0" style="rounded=0;whiteSpace=wrap;html=1;fillColor=#eeeeee;strokeColor=#36393d;" vertex="1" parent="1">
          <mxGeometry x="720" y="80" width="80" height="80" as="geometry" />
        </mxCell>
        <mxCell id="S5TMCLqPkmrL3Fpd-VaT-3" value="CG1" style="rounded=0;whiteSpace=wrap;html=1;fillColor=#ffcccc;strokeColor=#36393d;" vertex="1" parent="1">
          <mxGeometry x="720" y="240" width="80" height="80" as="geometry" />
        </mxCell>
        <mxCell id="S5TMCLqPkmrL3Fpd-VaT-5" value="CG2" style="rounded=0;whiteSpace=wrap;html=1;fillColor=#ffff88;strokeColor=#36393d;" vertex="1" parent="1">
          <mxGeometry x="720" y="400" width="80" height="80" as="geometry" />
        </mxCell>
        <mxCell id="S5TMCLqPkmrL3Fpd-VaT-7" value="CG3" style="rounded=0;whiteSpace=wrap;html=1;fillColor=#cce5ff;strokeColor=#36393d;" vertex="1" parent="1">
          <mxGeometry x="720" y="560" width="80" height="80" as="geometry" />
        </mxCell>
        <mxCell id="S5TMCLqPkmrL3Fpd-VaT-9" value="AI Card 3" style="text;html=1;strokeColor=none;fillColor=none;align=center;verticalAlign=middle;whiteSpace=wrap;rounded=0;" vertex="1" parent="1">
          <mxGeometry x="730" y="20" width="60" height="30" as="geometry" />
        </mxCell>
      </root>
    </mxGraphModel>
  </diagram>
</mxfile>
